<svg width="14" height="13" viewBox="0 0 14 13" fill="none" xmlns="http://www.w3.org/2000/svg">
<path d="M2.26088 6.40637L7.34919 11.2808C7.71485 11.6312 7.71485 12.1994 7.34919 12.5497C6.98353 12.9001 6.39055 12.9001 6.02474 12.5497L0.274141 7.04058C0.091311 6.86534 -1.50626e-07 6.63591 -1.70693e-07 6.40637C-1.90768e-07 6.17675 0.0914886 5.94715 0.274141 5.77199L6.02474 0.262966C6.39055 -0.087654 6.98356 -0.087654 7.34919 0.262966C7.71485 0.613274 7.71485 1.18144 7.34919 1.53172L2.26088 6.40637ZM13.1789 1.53172C13.5445 1.18141 13.5445 0.613245 13.1789 0.262965C12.8132 -0.0876545 12.2204 -0.0876545 11.8544 0.262965L6.1038 5.77197C5.92097 5.94712 5.82981 6.17672 5.82981 6.40634C5.82981 6.63588 5.92115 6.86548 6.1038 7.04055L11.8544 12.5497C12.2204 12.9001 12.8132 12.9001 13.1789 12.5497C13.5445 12.1994 13.5445 11.6313 13.1789 11.2808L8.09045 6.40637L13.1789 1.53172Z" fill="white"/>
</svg>
